<?xml version="1.0" encoding="utf-8"?>
<svg version="1.0" xmlns="http://www.w3.org/2000/svg" width="1024.000000" height="1024.000000" viewBox="0 0 1024.000000 1024.000000" preserveAspectRatio="xMidYMid meet" xmlns:bx="https://boxy-svg.com">
  <defs>
    <bx:export>
      <bx:file format="png" path="acela.png"/>
    </bx:export>
  </defs>
  <g transform="translate(0.000000,1024.000000) scale(0.100000,-0.100000)" fill="#000000" stroke="none">
    <path d="M4725 8934 c-27 -2 -124 -9 -215 -14 -565 -37 -1094 -152 -1427 -310 -425 -202 -672 -534 -742 -1000 -23 -153 -143 -1148 -225 -1865 -107 -931 -116 -1048 -98 -1287 20 -263 62 -439 164 -679 97 -230 227 -419 414 -599 171 -165 323 -271 585 -409 l134 -71 -492 -488 c-327 -324 -498 -501 -512 -528 -63 -129 -18 -278 107 -352 65 -38 174 -39 246 -2 36 18 196 170 594 565 299 297 559 550 576 562 l31 23 67 -21 c193 -58 502 -116 768 -145 211 -24 638 -24 850 0 257 27 598 95 772 152 46 15 49 15 80 -7 18 -12 281 -268 583 -569 518 -515 553 -549 608 -569 76 -28 139 -27 202 3 104 48 154 127 155 242 0 120 5 115 -534 653 l-485 485 145 77 c481 259 757 530 950 934 102 215 163 426 189 656 20 179 19 287 -5 584 -28 342 -162 1538 -261 2330 -63 504 -111 669 -266 903 -275 415 -857 642 -1873 728 -173 14 -958 28 -1085 18z m120 -1223 c48 -22 69 -44 90 -94 13 -32 15 -139 15 -838 0 -586 -3 -812 -12 -841 -15 -49 -100 -129 -164 -154 -54 -20 18 -28 -874 91 -1024 137 -976 129 -1038 172 -63 43 -99 87 -113 137 -12 44 22 444 85 1016 46 412 54 449 111 486 67 44 57 43 980 43 833 1 882 0 920 -18z m2396 4 c52 -19 96 -58 115 -102 27 -62 153 -1345 140 -1417 -9 -48 -54 -106 -118 -149 l-54 -38 -506 -69 c-983 -134 -1288 -172 -1323 -166 -58 11 -157 85 -182 136 l-23 44 0 817 c0 555 3 827 11 846 15 40 48 73 94 94 38 18 86 19 921 19 768 0 887 -2 925 -15z m-3414 -2520 c93 -29 157 -71 232 -150 96 -103 143 -225 143 -370 0 -153 -49 -274 -156 -381 -117 -117 -266 -173 -426 -161 -266 21 -463 208 -503 478 -26 183 59 384 213 500 149 112 316 140 497 84z m2931 -1 c227 -75 372 -277 372 -519 0 -153 -52 -279 -159 -386 -135 -135 -328 -187 -514 -140 -125 32 -217 90 -296 186 -199 241 -142 619 119 794 148 98 310 120 478 65z" style="fill: rgb(0, 36, 54);"/>
  </g>
</svg>